<svg width="0" height="0">
  <!-- Close -->
  <symbol viewBox="0 0 24 24" xmlns="http://www.w3.org/2000/svg" id="close">
    <path fill="currentColor" d="M19,6.41L17.59,5L12,10.59L6.41,5L5,6.41L10.59,12L5,17.59L6.41,19L12,13.41L17.59,19L19,17.59L13.41,12L19,6.41Z"></path>
  </symbol>

  <!-- Minimize -->
  <symbol viewBox="0 0 24 24" xmlns="http://www.w3.org/2000/svg" id="minimize">
    <path fill="currentColor" d="M20,12H6V10H20"></path>
  </symbol>

  <!-- Discord -->
  <symbol viewBox="0 0 128 128" xmlns="http://www.w3.org/2000/svg" id="discord">
    <path fill="currentColor" d="m 52.415998,53.69602 c -3.648,0 -6.528002,3.2 -6.528002,7.103999 0,3.904002 2.944001,7.104 6.528002,7.104 3.647999,0 6.527999,-3.199998 6.527999,-7.104 0.06399,-3.903999 -2.88,-7.103999 -6.527999,-7.103999 z m 23.359996,0 c -3.648,0 -6.527999,3.2 -6.527999,7.103999 0,3.904002 2.944001,7.104 6.527999,7.104 3.648002,0 6.528002,-3.199998 6.528002,-7.104 0,-3.903999 -2.88,-7.103999 -6.528002,-7.103999 z"></path>
    <path fill="currentColor" d="M 106.87998,2.2888184e-5 H 21.119997 C 13.887997,2.2888184e-5 8,5.8880239 8,13.184023 v 86.527994 c 0,7.295993 5.887997,13.184003 13.119997,13.184003 h 72.575997 l -3.392,-11.84001 8.192007,7.61601 7.743989,7.16799 L 120,128 V 13.184023 C 120,5.8880239 114.11199,2.2888184e-5 106.87998,2.2888184e-5 Z M 82.175995,83.584018 c 0,0 -2.304,-2.751991 -4.223999,-5.183999 8.384,-2.367992 11.583998,-7.616008 11.583998,-7.616008 -2.623998,1.728 -5.119998,2.944016 -7.359999,3.776008 -3.2,1.344 -6.272,2.240008 -9.280001,2.751992 -6.143999,1.152 -11.775998,0.832016 -16.575998,-0.06392 -3.647999,-0.704008 -6.783998,-1.728 -9.407999,-2.751991 -1.472001,-0.575999 -3.072,-1.280007 -4.672001,-2.176015 -0.192,-0.128082 -0.384,-0.192 -0.576,-0.319984 -0.128008,-0.06392 -0.192,-0.128082 -0.255999,-0.192 -1.152,-0.640016 -1.791999,-1.088008 -1.791999,-1.088008 0,0 3.072,5.120008 11.199998,7.551991 -1.92,2.432008 -4.287999,5.312008 -4.287999,5.312008 C 32.383998,83.1361 27.007998,73.856084 27.007998,73.856084 c 0,-20.60799 9.215999,-37.311988 9.215999,-37.311988 9.215999,-6.912 17.984,-6.72 17.984,-6.72 l 0.639999,0.768 c -11.519999,3.327999 -16.832,8.383998 -16.832,8.383998 0,0 1.408002,-0.768 3.776001,-1.855998 6.848,-3.008001 12.287999,-3.84 14.527999,-4.032 0.384,-0.06399 0.704001,-0.128008 1.088001,-0.128008 3.903999,-0.512067 8.319999,-0.640066 12.927998,-0.128057 6.080001,0.704 12.608,2.495999 19.264,6.143999 0,0 -5.056001,-4.8 -15.936001,-8.127999 l 0.896001,-1.024008 c 0,0 8.768,-0.192 17.983999,6.719999 0,0 9.216006,16.703999 9.216006,37.311989 0,0 -5.440015,9.280016 -19.584005,9.728007 z"></path>
  </symbol>

  <!-- GitHub -->
  <symbol viewBox="0 0 16 16" xmlns="http://www.w3.org/2000/svg" id="github">
    <path fill="currentColor" d="M8 0C3.58 0 0 3.58 0 8c0 3.54 2.29 6.53 5.47 7.59.4.07.55-.17.55-.38 0-.19-.01-.82-.01-1.49-2.01.37-2.53-.49-2.69-.94-.09-.23-.48-.94-.82-1.13-.28-.15-.68-.52-.01-.53.63-.01 1.08.58 1.23.82.72 1.21 1.87.87 2.33.66.07-.52.28-.87.51-1.07-1.78-.2-3.64-.89-3.64-3.95 0-.87.31-1.59.82-2.15-.08-.2-.36-1.02.08-2.12 0 0 .67-.21 2.2.82.64-.18 1.32-.27 2-.27.68 0 1.36.09 2 .27 1.53-1.04 2.2-.82 2.2-.82.44 1.1.16 1.92.08 2.12.51.56.82 1.27.82 2.15 0 3.07-1.87 3.75-3.65 3.95.29.25.54.73.54 1.48 0 1.07-.01 1.93-.01 2.2 0 .21.15.46.55.38A8.013 8.013 0 0016 8c0-4.42-3.58-8-8-8z"></path>
  </symbol>

  <!-- Twitter -->
  <symbol viewBox="0 0 24 24" xmlns="http://www.w3.org/2000/svg" id="twitter">
    <path fill="currentColor" d="M23.643 4.937c-.835.37-1.732.62-2.675.733.962-.576 1.7-1.49 2.048-2.578-.9.534-1.897.922-2.958 1.13-.85-.904-2.06-1.47-3.4-1.47-2.572 0-4.658 2.086-4.658 4.66 0 .364.042.718.12 1.06-3.873-.195-7.304-2.05-9.602-4.868-.4.69-.63 1.49-.63 2.342 0 1.616.823 3.043 2.072 3.878-.764-.025-1.482-.234-2.11-.583v.06c0 2.257 1.605 4.14 3.737 4.568-.392.106-.803.162-1.227.162-.3 0-.593-.028-.877-.082.593 1.85 2.313 3.198 4.352 3.234-1.595 1.25-3.604 1.995-5.786 1.995-.376 0-.747-.022-1.112-.065 2.062 1.323 4.51 2.093 7.14 2.093 8.57 0 13.255-7.098 13.255-13.254 0-.2-.005-.402-.014-.602.91-.658 1.7-1.477 2.323-2.41z"></path>
  </symbol>
</svg>
